<svg xmlns="http://www.w3.org/2000/svg" viewBox="0 0 1440 320"><path fill="#0099ff" fill-opacity="1" d="M0,160L34.3,186.7C68.6,213,137,267,206,277.3C274.3,288,343,256,411,213.3C480,171,549,117,617,90.7C685.7,64,754,64,823,80C891.4,96,960,128,1029,154.7C1097.1,181,1166,203,1234,208C1302.9,213,1371,203,1406,197.3L1440,192L1440,320L1405.7,320C1371.4,320,1303,320,1234,320C1165.7,320,1097,320,1029,320C960,320,891,320,823,320C754.3,320,686,320,617,320C548.6,320,480,320,411,320C342.9,320,274,320,206,320C137.1,320,69,320,34,320L0,320Z"></path></svg>